<svg xmlns="http://www.w3.org/2000/svg" width="18.701" height="17.262" viewBox="0 0 18.701 17.262">
  <g id="Icon_ionic-ios-qr-scanner" data-name="Icon ionic-ios-qr-scanner" transform="translate(-3.375 -4.5)">
    <path id="Path_289" data-name="Path 289" d="M9.039,4.5H6.4A3.022,3.022,0,0,0,3.375,7.521v2.643a.629.629,0,0,0,1.259,0V7.476A1.83,1.83,0,0,1,6.351,5.759H9.039a.629.629,0,0,0,0-1.259Z" transform="translate(0 0)" fill="#7f53d6"/>
    <path id="Path_290" data-name="Path 290" d="M26.1,4.5H23.411a.629.629,0,0,0,0,1.259H26.1a1.83,1.83,0,0,1,1.717,1.717v2.688a.629.629,0,1,0,1.259,0V7.476A2.979,2.979,0,0,0,26.1,4.5Z" transform="translate(-6.999 0)" fill="#7f53d6"/>
    <path id="Path_291" data-name="Path 291" d="M9.039,26.691H6.351a1.83,1.83,0,0,1-1.717-1.717V22.286a.629.629,0,0,0-1.259,0v2.688A2.979,2.979,0,0,0,6.351,27.95H9.039a.629.629,0,1,0,0-1.259Z" transform="translate(0 -6.188)" fill="#7f53d6"/>
    <path id="Path_292" data-name="Path 292" d="M28.445,21.656a.631.631,0,0,0-.629.629v2.688A1.83,1.83,0,0,1,26.1,26.691H23.411a.629.629,0,0,0,0,1.259h2.643a3.025,3.025,0,0,0,3.021-3.021V22.286A.631.631,0,0,0,28.445,21.656Z" transform="translate(-6.999 -6.188)" fill="#7f53d6"/>
  </g>
</svg>
