<svg xmlns="http://www.w3.org/2000/svg" width="26.333" height="19.75" viewBox="0 0 26.333 19.75">
  <g id="envelope_1_" data-name="envelope (1)" transform="translate(0 -64)">
    <g id="Group_108" data-name="Group 108" transform="translate(0 64)">
      <path id="Path_297" data-name="Path 297" d="M24.139,64H2.194A2.2,2.2,0,0,0,0,66.194V81.556A2.2,2.2,0,0,0,2.194,83.75H24.139a2.2,2.2,0,0,0,2.194-2.194V66.194A2.2,2.2,0,0,0,24.139,64ZM2.194,65.1H24.139a1.043,1.043,0,0,1,.228.046c-1.9,1.739-8.2,7.5-10.4,9.488a1.1,1.1,0,0,1-1.593,0c-2.2-1.986-8.5-7.749-10.4-9.488A1.049,1.049,0,0,1,2.194,65.1ZM1.1,81.556V66.194a1.06,1.06,0,0,1,.061-.3c1.454,1.331,5.85,5.352,8.7,7.944-2.841,2.44-7.238,6.609-8.7,8.006A1.057,1.057,0,0,1,1.1,81.556Zm23.042,1.1H2.194a1.049,1.049,0,0,1-.247-.05c1.515-1.444,5.939-5.636,8.73-8.024l.958.867a2.192,2.192,0,0,0,3.062,0l.959-.868c2.791,2.387,7.215,6.58,8.73,8.024A1.048,1.048,0,0,1,24.139,82.653Zm1.1-1.1a1.06,1.06,0,0,1-.058.286c-1.466-1.4-5.862-5.566-8.7-8.006,2.85-2.592,7.245-6.613,8.7-7.944a1.06,1.06,0,0,1,.061.3Z" transform="translate(0 -64)" fill="#7f53d6"/>
    </g>
  </g>
</svg>
