<svg xmlns="http://www.w3.org/2000/svg" width="19" height="19" viewBox="0 0 19 19">
  <g id="Group_118" data-name="Group 118" transform="translate(-37 -721)">
    <path id="Icon_open-question-mark" data-name="Icon open-question-mark" d="M3.212,0A3.361,3.361,0,0,0,.767.858,2.838,2.838,0,0,0,0,2.523l1.3.169a1.576,1.576,0,0,1,.4-.9A1.931,1.931,0,0,1,3.212,1.3,2.3,2.3,0,0,1,4.8,1.743a1.087,1.087,0,0,1,.364.858c0,1.079-.442,1.379-1.092,1.951A3.707,3.707,0,0,0,2.562,7.478V7.8h1.3V7.478A2.164,2.164,0,0,1,4.916,5.527,3.729,3.729,0,0,0,6.464,2.6,2.5,2.5,0,0,0,5.7.767,3.6,3.6,0,0,0,3.212,0Zm-.65,9.1v1.3h1.3V9.1Z" transform="translate(43.268 725.986)" fill="#7f53d6"/>
    <g id="Ellipse_65" data-name="Ellipse 65" transform="translate(37 721)" fill="none" stroke="#7f53d6" stroke-width="1">
      <circle cx="9.5" cy="9.5" r="9.5" stroke="none"/>
      <circle cx="9.5" cy="9.5" r="9" fill="none"/>
    </g>
  </g>
</svg>
