<svg xmlns="http://www.w3.org/2000/svg" width="16.266" height="14.459" viewBox="0 0 16.266 14.459">
  <path id="Icon_metro-shop" data-name="Icon metro-shop" d="M8.743,9.372l.715-4.744H5.74L4.186,8.694a1.425,1.425,0,0,0-.073.452,2.114,2.114,0,0,0,2.323,1.807A2.2,2.2,0,0,0,8.743,9.372Zm3.5,1.581a2.115,2.115,0,0,0,2.323-1.807c0-.037,0-.074,0-.109L14.1,4.627H10.387L9.926,9.033c0,.037,0,.074,0,.113a2.115,2.115,0,0,0,2.323,1.807Zm4.518.945v3.573H7.728V11.9a3.8,3.8,0,0,1-1.291.224,3.726,3.726,0,0,1-.516-.044v5.737a1.268,1.268,0,0,0,1.263,1.265H17.307a1.269,1.269,0,0,0,1.265-1.265V12.084a3.883,3.883,0,0,1-.516.044A3.755,3.755,0,0,1,16.764,11.9Zm3.542-3.2L18.752,4.627H15.035l.714,4.737a2.2,2.2,0,0,0,2.307,1.589,2.115,2.115,0,0,0,2.323-1.807A1.451,1.451,0,0,0,20.307,8.694Z" transform="translate(-4.113 -4.627)" fill="#7f53d6"/>
</svg>
