<svg xmlns="http://www.w3.org/2000/svg" width="14.682" height="19" viewBox="0 0 14.682 19">
  <path id="Icon_material-phonelink-lock" data-name="Icon material-phonelink-lock" d="M18.954,1.5H10.318A1.732,1.732,0,0,0,8.591,3.227V5.818h1.727V4.091h8.636V17.909H10.318V16.182H8.591v2.591A1.732,1.732,0,0,0,10.318,20.5h8.636a1.732,1.732,0,0,0,1.727-1.727V3.227A1.732,1.732,0,0,0,18.954,1.5Zm-7.082,8.636v-1.3A2.371,2.371,0,0,0,9.454,6.682,2.371,2.371,0,0,0,7.036,8.841v1.3A1.114,1.114,0,0,0,6,11.173V14.2a1.131,1.131,0,0,0,1.036,1.123h4.75a1.131,1.131,0,0,0,1.123-1.036V11.259A1.131,1.131,0,0,0,11.873,10.136Zm-1.123,0H8.159v-1.3a1.187,1.187,0,0,1,1.3-1.123,1.187,1.187,0,0,1,1.3,1.123Z" transform="translate(-6 -1.5)" fill="#7f53d6"/>
</svg>
