<svg xmlns="http://www.w3.org/2000/svg" width="15.975" height="18.638" viewBox="0 0 15.975 18.638">
  <path id="Icon_metro-language" data-name="Icon metro-language" d="M11.572,13.415q-.01.031-.13-.005t-.328-.12l-.208-.094a6.232,6.232,0,0,1-.9-.51q-.073-.052-.426-.328t-.4-.3a17.718,17.718,0,0,1-1.394,1.882A7.732,7.732,0,0,1,6.694,15.09a.824.824,0,0,1-.2.042.4.4,0,0,1-.192,0q.062-.042.853-.957.218-.25.889-1.2a14.542,14.542,0,0,0,.816-1.227q.177-.312.53-1.024a8.107,8.107,0,0,0,.374-.806,8.547,8.547,0,0,0-1.144.343q-.083.021-.286.078l-.359.1a1.782,1.782,0,0,0-.177.052.177.177,0,0,0-.021.109.231.231,0,0,1-.01.1q-.052.1-.322.156a.839.839,0,0,1-.489,0,.439.439,0,0,1-.291-.218.529.529,0,0,1-.052-.239,2.01,2.01,0,0,1,.255-.052,3.106,3.106,0,0,0,.307-.062q.6-.166,1.092-.333,1.04-.364,1.061-.364a2.307,2.307,0,0,0,.447-.2,4.7,4.7,0,0,1,.458-.224q.094-.031.224-.083t.151-.057a.139.139,0,0,1,.062.005,1.184,1.184,0,0,1-.01.343,2.214,2.214,0,0,1-.13.281q-.13.26-.276.556t-.177.348a15.6,15.6,0,0,1-.8,1.362l.666.291q.125.062.775.333l.7.291q.042.01.109.265a.788.788,0,0,1,.047.317ZM9.44,8.361a.422.422,0,0,1-.042.291.943.943,0,0,1-.52.4,1.67,1.67,0,0,1-.624.125.861.861,0,0,1-.51-.27.782.782,0,0,1-.187-.426l.01-.031a.445.445,0,0,0,.2.052.9.9,0,0,0,.276,0q.1-.021.6-.166a2.97,2.97,0,0,1,.572-.146.205.205,0,0,1,.218.177ZM16.7,9.7l.655,2.361-1.446-.437ZM5.176,18.023l7.218-2.413V4.876L5.176,7.3V18.023Zm12.907-3.3,1.061.322L17.261,8.215l-1.04-.322-2.247,5.575,1.061.322.468-1.144,2.194.676ZM12.851,4.72l5.959,1.914V2.682Zm3.235,13.76,1.643.135-.562,1.664-.416-.686a7.71,7.71,0,0,1-2.871,1.123,4.985,4.985,0,0,1-.946.125h-.874a7.029,7.029,0,0,1-2.075-.406,6.907,6.907,0,0,1-1.908-.884.217.217,0,0,1-.083-.166.2.2,0,0,1,.052-.14.174.174,0,0,1,.135-.057.586.586,0,0,1,.187.078l.317.172.213.114a9.215,9.215,0,0,0,1.659.64,6.06,6.06,0,0,0,1.638.255,8.875,8.875,0,0,0,1.737-.151,8.572,8.572,0,0,0,1.633-.525q.156-.073.317-.161t.354-.2q.192-.109.3-.172ZM20.745,7.258V18.48L12.7,15.922q-.146.062-3.9,1.326T4.967,18.511a.188.188,0,0,1-.187-.135.08.08,0,0,0-.01-.031V7.133a.464.464,0,0,1,.042-.1.468.468,0,0,1,.208-.114q1.1-.364,1.55-.52V2.4l5.8,2.059q.021,0,1.669-.572T17.328,2.76q1.638-.556,1.68-.556.208,0,.208.218V6.769Z" transform="translate(-4.77 -2.203)" fill="#7f53d6"/>
</svg>
