<svg xmlns="http://www.w3.org/2000/svg" width="19.788" height="19.788" viewBox="0 0 19.788 19.788">
  <path id="Icon_ionic-md-globe" data-name="Icon ionic-md-globe" d="M13.269,3.375a9.894,9.894,0,1,0,9.894,9.894A9.894,9.894,0,0,0,13.269,3.375ZM12.244,21.688A8.482,8.482,0,0,1,6.815,7.767a9.4,9.4,0,0,1,.1,1.15,3.668,3.668,0,0,0,.473,2.8,4.612,4.612,0,0,1,.447,1.336c.123.421.614.642.952.9.683.524,1.336,1.132,2.061,1.593.478.3.777.456.637,1.039a3.686,3.686,0,0,1-.387,1.176,2.384,2.384,0,0,0,.4,1.065c.357.357.711.684,1.1,1C13.193,20.326,12.531,20.973,12.244,21.688Zm7.022-2.423a8.42,8.42,0,0,1-4.4,2.335A3.518,3.518,0,0,1,15.9,20.2a3.543,3.543,0,0,0,.937-1.158,8.047,8.047,0,0,1,.646-1.1c.336-.518-.829-1.3-1.206-1.464a12.432,12.432,0,0,1-2.243-1.4c-.538-.378-1.63.2-2.237-.067a11.7,11.7,0,0,1-2.239-1.538c-.746-.562-.71-1.217-.71-2.045.584.022,1.415-.162,1.8.308.122.148.543.811.825.575.23-.192-.171-.963-.248-1.144-.238-.557.542-.775.942-1.152.521-.493,1.64-1.266,1.551-1.62S12.606,7.041,12,7.2c-.091.023-.889.861-1.044.992q.006-.41.012-.82c0-.173-.322-.35-.307-.461.038-.281.821-.792,1.016-1.016-.136-.085-.6-.485-.743-.427-.341.142-.727.24-1.068.382a2.172,2.172,0,0,0-.031-.339,8.4,8.4,0,0,1,2.155-.626l.67.269.473.561.472.487.413.133.655-.618-.169-.441v-.4A8.388,8.388,0,0,1,18.1,6.3c-.192.017-.4.045-.64.076a2.132,2.132,0,0,0-.331-.125c.311.668.635,1.327.964,1.986.352.7,1.132,1.459,1.269,2.2.161.876.049,1.672.138,2.7a4.616,4.616,0,0,0,1.119,2.12,2.241,2.241,0,0,0,.874.106A8.428,8.428,0,0,1,19.266,19.266Z" transform="translate(-3.375 -3.375)" fill="#7f53d6"/>
</svg>
