<svg xmlns="http://www.w3.org/2000/svg" width="79" height="79" viewBox="0 0 79 79">
  <g id="Icon_ionic-ios-information-circle-outline" data-name="Icon ionic-ios-information-circle-outline" transform="translate(-3.375 -3.375)">
    <path id="Path_248" data-name="Path 248" d="M16.552,14.488a3.8,3.8,0,0,1,3.893-3.779,3.79,3.79,0,1,1-3.893,3.779Zm.266,6.78h7.254V48.632H16.817Z" transform="translate(22.411 12.473)" fill="#7f53d6"/>
    <path id="Path_249" data-name="Path 249" d="M42.875,8.692A34.188,34.188,0,0,1,67.05,67.05,34.188,34.188,0,0,1,18.7,18.7,33.957,33.957,0,0,1,42.875,8.692m0-5.317a39.5,39.5,0,1,0,39.5,39.5,39.494,39.494,0,0,0-39.5-39.5Z" transform="translate(0 0)" fill="#7f53d6"/>
  </g>
</svg>
