<svg xmlns="http://www.w3.org/2000/svg" width="15.585" height="17.206" viewBox="0 0 15.585 17.206">
  <g id="Icon_feather-share-2" data-name="Icon feather-share-2" transform="translate(-4 -2.5)">
    <path id="Path_256" data-name="Path 256" d="M27.362,5.431A2.431,2.431,0,1,1,24.931,3,2.431,2.431,0,0,1,27.362,5.431Z" transform="translate(-8.277)" fill="none" stroke="#7f53d6" stroke-linecap="round" stroke-linejoin="round" stroke-width="1"/>
    <path id="Path_257" data-name="Path 257" d="M9.362,15.931A2.431,2.431,0,1,1,6.931,13.5,2.431,2.431,0,0,1,9.362,15.931Z" transform="translate(0 -4.828)" fill="none" stroke="#7f53d6" stroke-linecap="round" stroke-linejoin="round" stroke-width="1"/>
    <path id="Path_258" data-name="Path 258" d="M27.362,26.431A2.431,2.431,0,1,1,24.931,24,2.431,2.431,0,0,1,27.362,26.431Z" transform="translate(-8.277 -9.656)" fill="none" stroke="#7f53d6" stroke-linecap="round" stroke-linejoin="round" stroke-width="1"/>
    <path id="Path_259" data-name="Path 259" d="M12.885,20.265l5.534,3.225" transform="translate(-3.855 -7.939)" fill="none" stroke="#7f53d6" stroke-linecap="round" stroke-linejoin="round" stroke-width="1"/>
    <path id="Path_260" data-name="Path 260" d="M18.411,9.765,12.885,12.99" transform="translate(-3.855 -3.111)" fill="none" stroke="#7f53d6" stroke-linecap="round" stroke-linejoin="round" stroke-width="1"/>
  </g>
</svg>
