<svg xmlns="http://www.w3.org/2000/svg" width="16.7" height="19.484" viewBox="0 0 16.7 19.484">
  <path id="Icon_ionic-ios-git-network" data-name="Icon ionic-ios-git-network" d="M18.13,2.25a3.076,3.076,0,0,0-2.309,5.1,3.039,3.039,0,0,0,1.661.979V10.2L12.85,12.614,8.223,10.2V8.33a3.072,3.072,0,1,0-2.962-.979,3.039,3.039,0,0,0,1.661.979v2.5a.3.3,0,0,0,.17.274l5.11,2.644v1.909a3.071,3.071,0,1,0,2.957.979,3.039,3.039,0,0,0-1.661-.979V13.744l5.11-2.644a.3.3,0,0,0,.17-.274V8.33a3.075,3.075,0,0,0-.648-6.08ZM5.8,5.325A1.774,1.774,0,1,1,7.57,7.1,1.776,1.776,0,0,1,5.8,5.325Zm8.828,13.334a1.774,1.774,0,1,1-1.774-1.774A1.776,1.776,0,0,1,14.624,18.659ZM18.13,7.1A1.774,1.774,0,1,1,19.9,5.329,1.776,1.776,0,0,1,18.13,7.1Z" transform="translate(-4.5 -2.25)" fill="#7f53d6"/>
</svg>
